PathFileType	4	(X/Y/Z)	/Users/itak/Documents/Research/Walk-IL/dataset/trc/00034_00004.trc
DataRate	CameraRate	NumFrames	NumMarkers	Units	OrigDataRate	OrigDataStartFrame	OrigNumFrames
100.000000	100.000000	4	53	mm	100.000000	604	806
Frame#	Time	RPSI			LPSI			L3			STRN			T10			C7			CLAV			RBAK			LBAK			LSHO			LUPA			LAEL			LAOL			LWTS			LWPS			LFRA			LIFD			LHPS			LHTS			RSHO			RUPA			RAEL			RAOL			RWTS			RWPS			RFRA			RIFD			RHTS			RHPS			RBHD			LFHD			RFHD			LBHD			LHIP			RHIP			RASI			LASI			LKNE			LTHI			LANK			LTIP			LTOE			LMT1			LMT5			LHEE			RKNE			RTHI			RANK			RTIP			RTOE			RMT1			RMT5			RHEE			
		X1	Y1	Z1	X2	Y2	Z2	X3	Y3	Z3	X4	Y4	Z4	X5	Y5	Z5	X6	Y6	Z6	X7	Y7	Z7	X8	Y8	Z8	X9	Y9	Z9	X10	Y10	Z10	X11	Y11	Z11	X12	Y12	Z12	X13	Y13	Z13	X14	Y14	Z14	X15	Y15	Z15	X16	Y16	Z16	X17	Y17	Z17	X18	Y18	Z18	X19	Y19	Z19	X20	Y20	Z20	X21	Y21	Z21	X22	Y22	Z22	X23	Y23	Z23	X24	Y24	Z24	X25	Y25	Z25	X26	Y26	Z26	X27	Y27	Z27	X28	Y28	Z28	X29	Y29	Z29	X30	Y30	Z30	X31	Y31	Z31	X32	Y32	Z32	X33	Y33	Z33	X34	Y34	Z34	X35	Y35	Z35	X36	Y36	Z36	X37	Y37	Z37	X38	Y38	Z38	X39	Y39	Z39	X40	Y40	Z40	X41	Y41	Z41	X42	Y42	Z42	X43	Y43	Z43	X44	Y44	Z44	X45	Y45	Z45	X46	Y46	Z46	X47	Y47	Z47	X48	Y48	Z48	X49	Y49	Z49	X50	Y50	Z50	X51	Y51	Z51	X52	Y52	Z52	X53	Y53	Z53	

605	6.04	693.6778564453125	1032.159545898438	836.8645629882812	768.4860229492188	1023.941955566406	984.3888549804688	744.4166259765625	1088.727416992188	913.2794799804688	550.2559814453125	1287.750366210938	1002.608215332031	774.91357421875	1233.012939453125	898.4714965820312	739.2801513671875	1502.619262695312	922.9714965820312	594.1710815429688	1411.841674804688	986.1163330078125	753.932373046875	1363.44677734375	829.5094604492188	797.4799194335938	1462.618774414062	1001.550537109375	740.0241088867188	1472.12939453125	1113.0126953125	811.0543823242188	1349.220458984375	1165.0263671875	844.2716674804688	1134.16015625	1179.421020507812	846.6854858398438	1125.2861328125	1073.880615234375	762.5875854492188	873.3189086914062	1166.2431640625	852.09423828125	867.2122192382812	1167.3671875	847.1998291015625	1017.869384765625	1188.377685546875	764.3433227539062	679.2916259765625	1151.34326171875	832.1012573242188	774.4295043945312	1179.852905273438	760.9677734375	777.7803344726562	1184.32470703125	599.0741577148438	1484.781982421875	795.9424438476562	584.318359375	1416.084716796875	724.7557373046875	612.4925537109375	1148.038452148438	678.91455078125	653.9924926757812	1121.319091796875	765.6068725585938	471.8235168457031	929.2275390625	811.0580444335938	485.0765686035156	893.232666015625	726.8016967773438	582.1904907226562	1070.481201171875	679.0349731445312	423.7019653320312	760.777587890625	873.2684326171875	411.8556213378906	835.3175659179688	837.6746826171875	430.3863525390625	809.3397827148438	769.79638671875	640.4535522460938	1697.465576171875	1015.995727539062	455.3271789550781	1634.815185546875	919.025390625	467.0343322753906	1645.237426757812	1016.04736328125	619.0650024414062	1677.473754882812	874.5364379882812	717.5315551757812	927.0581665039062	1129.885986328125	545.1012573242188	920.83349609375	796.7194213867188	485.04541015625	958.35693359375	906.4243774414062	591.3839721679688	982.8447875976562	1116.298217773438	495.7069396972656	536.4916381835938	1164.903930664062	585.0319213867188	648.1666870117188	1177.06298828125	443.2080078125	48.21379089355469	1234.765258789062	498.13720703125	293.4096069335938	1211.144287109375	228.5142059326172	98.96565246582031	1188.63818359375	284.1722412109375	87.41075897216797	1166.179565429688	325.5205688476562	74.91379547119141	1263.824951171875	505.1047668457031	36.11940002441406	1176.799682617188	610.553466796875	485.6947021484375	857.4536743164062	541.4502563476562	751.1694946289062	820.1238403320312	841.299560546875	53.5822868347168	755.0895385742188	660.3632202148438	364.6785583496094	839.5427856445312	725.0698852539062	37.62058258056641	956.9135131835938	786.430908203125	44.29945373535156	927.4904174804688	726.0762329101562	39.74409866333008	851.48681640625	910.4440307617188	64.93642425537109	743.3518676757812	
606	6.05	688.9615478515625	1032.468627929688	842.910888671875	761.7924194335938	1024.002197265625	991.3533935546875	738.640625	1088.502197265625	920.102294921875	544.1199951171875	1287.95166015625	1006.519836425781	770.1609497070312	1232.686645507812	905.840576171875	735.0097045898438	1502.420776367188	929.73779296875	588.617919921875	1411.977661132812	990.6009521484375	750.72705078125	1363.0703125	836.6728515625	791.9013671875	1462.25439453125	1009.295532226562	732.6792602539062	1471.96533203125	1119.775146484375	802.2659301757812	1348.820190429688	1173.244262695312	834.2050170898438	1133.718872070312	1188.98046875	838.3322143554688	1124.320068359375	1083.557006835938	751.27734375	873.3644409179688	1175.93212890625	840.736083984375	866.696044921875	1178.374755859375	836.3729248046875	1017.473510742188	1198.537963867188	752.6138916015625	679.1832275390625	1161.468139648438	820.0160522460938	774.122802734375	1191.05859375	748.8314819335938	777.8896484375	1194.46533203125	596.7817993164062	1484.685668945312	800.4481811523438	583.0608520507812	1415.957763671875	729.1427001953125	612.0202026367188	1147.999389648438	683.9813232421875	651.6846923828125	1121.105102539062	771.4824829101562	471.14697265625	925.1325073242188	809.108642578125	487.9076843261719	890.6505126953125	725.0286865234375	582.6918334960938	1070.37158203125	682.64501953125	424.697998046875	754.7991943359375	867.4371948242188	412.4782409667969	829.6810913085938	832.610107421875	433.593505859375	805.1378173828125	765.0493774414062	635.071044921875	1697.607788085938	1021.266296386719	451.0880432128906	1635.068969726562	922.083251953125	461.6154174804688	1645.421997070312	1019.188537597656	615.3439331054688	1677.692993164062	879.5631713867188	708.6539306640625	927.038818359375	1135.974609375	541.087646484375	921.069091796875	800.63916015625	479.1864624023438	958.5301513671875	909.5320434570312	582.7177734375	982.8988647460938	1120.84765625	487.1374206542969	536.45166015625	1167.911499023438	575.7327270507812	648.6624755859375	1180.597778320312	440.8995056152344	46.774658203125	1235.42138671875	491.4432373046875	292.6865844726562	1213.1875	224.9427795410156	90.53229522705078	1187.173828125	281.1291198730469	80.94650268554688	1165.302978515625	321.8304748535156	68.8897705078125	1263.342163085938	503.6941528320312	37.56511306762695	1177.724365234375	605.8077392578125	485.7319946289062	860.6818237304688	537.0794677734375	751.5321655273438	823.3284301757812	840.8560791015625	56.11390686035156	755.6198120117188	656.4071655273438	364.9852294921875	842.0031127929688	724.8758544921875	37.62493515014648	957.0458374023438	786.07763671875	44.81672286987305	927.7255249023438	725.6939697265625	39.82234573364258	851.7556762695312	909.962158203125	68.63200378417969	744.1812744140625	
607	6.06	684.0279541015625	1033.011840820312	848.8507080078125	755.039794921875	1024.34423828125	998.0947265625	732.6714477539062	1088.569091796875	926.7647094726562	537.9601440429688	1288.428833007812	1010.451843261719	765.3518676757812	1232.612548828125	913.111572265625	730.6563720703125	1502.4716796875	936.5126953125	583.022705078125	1412.377563476562	995.0994262695312	747.4219970703125	1362.939331054688	843.8535766601562	786.2439575195312	1462.163330078125	1017.015319824219	725.2756958007812	1472.089233398438	1126.4892578125	793.3806762695312	1348.717163085938	1181.397827148438	823.9896240234375	1133.585083007812	1198.447021484375	829.7808227539062	1123.646728515625	1093.175048828125	739.900634765625	873.6707763671875	1185.52197265625	829.2967529296875	866.503662109375	1189.249267578125	825.3961181640625	1017.390075683594	1208.591064453125	740.8912353515625	679.34033203125	1171.45947265625	807.88916015625	774.1282958984375	1202.119995117188	736.67431640625	778.275146484375	1204.485961914062	594.4168090820312	1484.837890625	805.0081176757812	581.7402954101562	1416.05712890625	733.6181640625	611.4803466796875	1148.201904296875	689.2166137695312	649.21728515625	1121.123901367188	777.5115966796875	470.7112121582031	921.3135986328125	807.0936889648438	491.10107421875	888.407470703125	723.281494140625	583.22119140625	1070.542846679688	686.4122924804688	426.0901794433594	749.0878295898438	861.3560180664062	413.4881286621094	824.3092041015625	827.3035888671875	437.2617492675781	801.2857055664062	760.1722412109375	629.6233520507812	1698.0146484375	1026.531494140625	446.8265380859375	1635.556274414062	925.157958984375	456.1706848144531	1645.83837890625	1022.344848632812	611.5568237304688	1678.178466796875	884.6029052734375	699.8963012695312	927.41162109375	1141.964599609375	536.8840942382812	921.4215698242188	804.557861328125	473.2662658691406	958.9317016601562	912.724853515625	574.1478271484375	983.2756958007812	1125.353637695312	478.6395263671875	536.6654052734375	1171.005859375	566.62548828125	649.4444580078125	1184.189819335938	439.0234375	45.52865982055664	1236.1142578125	485.0286254882812	292.2277221679688	1215.369506835938	221.9588775634766	82.60873413085938	1185.931030273438	278.5721435546875	75.01409149169922	1164.639282226562	318.7733154296875	63.27533721923828	1263.015014648438	502.5877990722656	39.16364288330078	1178.628173828125	600.7097778320312	485.8994445800781	864.0961303710938	532.4708862304688	752.0028686523438	826.735107421875	840.329833984375	58.94401168823242	756.2669067382812	652.1514282226562	365.4259643554688	844.5979614257812	724.6650390625	37.64936447143555	957.16943359375	785.67822265625	45.43008804321289	928.0408935546875	725.2730102539062	39.93254089355469	852.081298828125	909.3681030273438	72.75608062744141	745.1953735351562	
608	6.07	678.875244140625	1033.773803710938	854.6698608398438	748.2421875	1024.93896484375	1004.596801757812	726.5403442382812	1088.931640625	933.2355346679688	531.7798461914062	1289.183959960938	1014.402465820312	760.4888305664062	1232.788940429688	920.244384765625	726.2113037109375	1502.76806640625	943.2854614257812	577.378173828125	1413.043701171875	999.6114501953125	744.0075073242188	1363.064453125	851.0275268554688	780.49951171875	1462.34716796875	1024.693603515625	717.8141479492188	1472.513671875	1133.1416015625	784.4080200195312	1348.9365234375	1189.47509765625	813.6461791992188	1133.784301757812	1207.802490234375	821.05126953125	1123.295776367188	1102.714111328125	728.4669189453125	874.2553100585938	1194.9931640625	817.7886352539062	866.6587524414062	1199.972045898438	814.28564453125	1017.6435546875	1218.51953125	729.173095703125	679.791748046875	1181.316284179688	795.733154296875	774.4710083007812	1213.018188476562	724.5022583007812	778.9617919921875	1214.382202148438	591.961669921875	1485.258178710938	809.6299438476562	580.3270263671875	1416.41259765625	738.180908203125	610.873046875	1148.682250976562	694.6082763671875	646.5841064453125	1121.412353515625	783.6781616210938	470.5220947265625	917.8359375	805.02783203125	494.6605529785156	886.561767578125	721.5852661132812	583.7782592773438	1071.031127929688	690.3285522460938	427.8885498046875	743.7202758789062	855.0427856445312	414.9312133789062	819.27587890625	821.792724609375	441.4124145507812	797.8523559570312	755.1937255859375	624.1301879882812	1698.674682617188	1031.784912109375	442.5445251464844	1636.286010742188	928.2498168945312	450.7145385742188	1646.497436523438	1025.525268554688	607.7164916992188	1678.919799804688	889.646240234375	691.298583984375	928.161376953125	1147.838745117188	532.4649658203125	921.9005737304688	808.4526977539062	467.2705993652344	959.5726928710938	915.9924926757812	565.7064208984375	983.96533203125	1129.822875976562	470.2388000488281	537.0806884765625	1174.173706054688	557.7123413085938	650.4481811523438	1187.871704101562	437.5049133300781	44.4391975402832	1236.8466796875	478.9370727539062	291.98583984375	1217.709106445312	219.5023651123047	75.46112823486328	1185.034423828125	276.4559936523438	69.80445861816406	1164.279663085938	316.3285522460938	58.23882675170898	1262.913330078125	501.6790771484375	40.75433349609375	1179.517333984375	595.2252197265625	486.1926879882812	867.6569213867188	527.6027221679688	752.56494140625	830.3521728515625	839.7166748046875	62.07937240600586	757.0515747070312	647.5706176757812	365.9950866699219	847.3043212890625	724.4442749023438	37.69070816040039	957.2786254882812	785.2238159179688	46.14849090576172	928.4430541992188	724.8150024414062	40.06884002685547	852.4662475585938	908.642333984375	77.31969451904297	746.429443359375	
